<mxfile host="app.diagrams.net" modified="2024-05-11T05:28:14.802Z" agent="Mozilla/5.0 (Windows NT 10.0; Win64; x64) AppleWebKit/537.36 (KHTML, like Gecko) Chrome/124.0.0.0 Safari/537.36" etag="8pratBuPkJYnQBaiWZkD" version="24.4.0" type="device">
  <diagram name="Page-1" id="SoGN6aHfxgdfe8pgvgv_">
    <mxGraphModel dx="1035" dy="551" grid="1" gridSize="10" guides="1" tooltips="1" connect="1" arrows="1" fold="1" page="1" pageScale="1" pageWidth="850" pageHeight="1100" math="0" shadow="0">
      <root>
        <mxCell id="0" />
        <mxCell id="1" parent="0" />
        <mxCell id="E7nvZutU4sEnOqxnhXQk-1" value="" style="ellipse;whiteSpace=wrap;html=1;aspect=fixed;" vertex="1" parent="1">
          <mxGeometry x="40" y="20" width="40" height="40" as="geometry" />
        </mxCell>
        <mxCell id="E7nvZutU4sEnOqxnhXQk-2" value="" style="endArrow=classic;html=1;rounded=0;exitX=0.5;exitY=1;exitDx=0;exitDy=0;" edge="1" parent="1" source="E7nvZutU4sEnOqxnhXQk-1">
          <mxGeometry width="50" height="50" relative="1" as="geometry">
            <mxPoint x="20" y="60" as="sourcePoint" />
            <mxPoint x="60" y="90" as="targetPoint" />
            <Array as="points" />
          </mxGeometry>
        </mxCell>
        <mxCell id="E7nvZutU4sEnOqxnhXQk-3" value="INSERT ATM CARD" style="rounded=1;whiteSpace=wrap;html=1;" vertex="1" parent="1">
          <mxGeometry x="10" y="90" width="100" height="40" as="geometry" />
        </mxCell>
        <mxCell id="E7nvZutU4sEnOqxnhXQk-4" value="" style="endArrow=classic;html=1;rounded=0;exitX=1;exitY=0.5;exitDx=0;exitDy=0;" edge="1" parent="1" source="E7nvZutU4sEnOqxnhXQk-3">
          <mxGeometry width="50" height="50" relative="1" as="geometry">
            <mxPoint x="400" y="270" as="sourcePoint" />
            <mxPoint x="160" y="110" as="targetPoint" />
          </mxGeometry>
        </mxCell>
        <mxCell id="E7nvZutU4sEnOqxnhXQk-5" value="" style="rhombus;whiteSpace=wrap;html=1;" vertex="1" parent="1">
          <mxGeometry x="160" y="87.5" width="50" height="45" as="geometry" />
        </mxCell>
        <mxCell id="E7nvZutU4sEnOqxnhXQk-6" value="" style="ellipse;whiteSpace=wrap;html=1;aspect=fixed;strokeColor=#000000;fillColor=#000000;" vertex="1" parent="1">
          <mxGeometry x="177.5" y="102.5" width="15" height="15" as="geometry" />
        </mxCell>
        <mxCell id="E7nvZutU4sEnOqxnhXQk-7" value="" style="endArrow=classic;html=1;rounded=0;exitX=0.5;exitY=1;exitDx=0;exitDy=0;" edge="1" parent="1" source="E7nvZutU4sEnOqxnhXQk-5">
          <mxGeometry width="50" height="50" relative="1" as="geometry">
            <mxPoint x="400" y="270" as="sourcePoint" />
            <mxPoint x="185" y="170" as="targetPoint" />
          </mxGeometry>
        </mxCell>
        <mxCell id="E7nvZutU4sEnOqxnhXQk-8" value="EJECT CARD" style="rounded=1;whiteSpace=wrap;html=1;" vertex="1" parent="1">
          <mxGeometry x="135" y="170" width="100" height="30" as="geometry" />
        </mxCell>
        <mxCell id="E7nvZutU4sEnOqxnhXQk-9" value="[CARD NOT RECOGNISED]" style="text;html=1;align=center;verticalAlign=middle;resizable=0;points=[];autosize=1;strokeColor=none;fillColor=none;" vertex="1" parent="1">
          <mxGeometry x="90" y="138" width="180" height="30" as="geometry" />
        </mxCell>
        <mxCell id="E7nvZutU4sEnOqxnhXQk-10" value="" style="endArrow=classic;html=1;rounded=0;exitX=1;exitY=0.5;exitDx=0;exitDy=0;" edge="1" parent="1" source="E7nvZutU4sEnOqxnhXQk-5">
          <mxGeometry width="50" height="50" relative="1" as="geometry">
            <mxPoint x="400" y="270" as="sourcePoint" />
            <mxPoint x="370" y="110" as="targetPoint" />
          </mxGeometry>
        </mxCell>
        <mxCell id="E7nvZutU4sEnOqxnhXQk-11" value="&amp;nbsp; &amp;nbsp; [CARD RECOGNISED]" style="text;html=1;align=center;verticalAlign=middle;resizable=0;points=[];autosize=1;strokeColor=none;fillColor=none;" vertex="1" parent="1">
          <mxGeometry x="180" y="78" width="160" height="30" as="geometry" />
        </mxCell>
        <mxCell id="E7nvZutU4sEnOqxnhXQk-12" value="PROMPT FOR PIN" style="rounded=1;whiteSpace=wrap;html=1;" vertex="1" parent="1">
          <mxGeometry x="370" y="90" width="100" height="40" as="geometry" />
        </mxCell>
        <mxCell id="E7nvZutU4sEnOqxnhXQk-13" value="" style="endArrow=classic;html=1;rounded=0;exitX=1;exitY=0.5;exitDx=0;exitDy=0;" edge="1" parent="1" source="E7nvZutU4sEnOqxnhXQk-12">
          <mxGeometry width="50" height="50" relative="1" as="geometry">
            <mxPoint x="400" y="270" as="sourcePoint" />
            <mxPoint x="530" y="110" as="targetPoint" />
          </mxGeometry>
        </mxCell>
        <mxCell id="E7nvZutU4sEnOqxnhXQk-14" value="ENTER PIN" style="rounded=1;whiteSpace=wrap;html=1;" vertex="1" parent="1">
          <mxGeometry x="530" y="90" width="100" height="40" as="geometry" />
        </mxCell>
        <mxCell id="E7nvZutU4sEnOqxnhXQk-15" value="" style="endArrow=classic;html=1;rounded=0;exitX=1;exitY=0.5;exitDx=0;exitDy=0;" edge="1" parent="1" source="E7nvZutU4sEnOqxnhXQk-14">
          <mxGeometry width="50" height="50" relative="1" as="geometry">
            <mxPoint x="400" y="270" as="sourcePoint" />
            <mxPoint x="700" y="110" as="targetPoint" />
          </mxGeometry>
        </mxCell>
        <mxCell id="E7nvZutU4sEnOqxnhXQk-18" value="" style="rhombus;whiteSpace=wrap;html=1;" vertex="1" parent="1">
          <mxGeometry x="700" y="87.5" width="50" height="45" as="geometry" />
        </mxCell>
        <mxCell id="E7nvZutU4sEnOqxnhXQk-19" value="" style="ellipse;whiteSpace=wrap;html=1;aspect=fixed;strokeColor=#000000;fillColor=#000000;" vertex="1" parent="1">
          <mxGeometry x="717.5" y="102.5" width="15" height="15" as="geometry" />
        </mxCell>
        <mxCell id="E7nvZutU4sEnOqxnhXQk-21" value="" style="rhombus;whiteSpace=wrap;html=1;" vertex="1" parent="1">
          <mxGeometry x="395" y="252.5" width="50" height="45" as="geometry" />
        </mxCell>
        <mxCell id="E7nvZutU4sEnOqxnhXQk-22" value="" style="rhombus;whiteSpace=wrap;html=1;" vertex="1" parent="1">
          <mxGeometry x="395" y="170" width="50" height="45" as="geometry" />
        </mxCell>
        <mxCell id="E7nvZutU4sEnOqxnhXQk-23" value="" style="endArrow=classic;html=1;rounded=0;exitX=0.5;exitY=0;exitDx=0;exitDy=0;entryX=0.5;entryY=1;entryDx=0;entryDy=0;" edge="1" parent="1" source="E7nvZutU4sEnOqxnhXQk-22" target="E7nvZutU4sEnOqxnhXQk-12">
          <mxGeometry width="50" height="50" relative="1" as="geometry">
            <mxPoint x="400" y="270" as="sourcePoint" />
            <mxPoint x="450" y="220" as="targetPoint" />
          </mxGeometry>
        </mxCell>
        <mxCell id="E7nvZutU4sEnOqxnhXQk-24" value="" style="endArrow=classic;html=1;rounded=0;entryX=0.5;entryY=1;entryDx=0;entryDy=0;exitX=0.5;exitY=0;exitDx=0;exitDy=0;" edge="1" parent="1" source="E7nvZutU4sEnOqxnhXQk-21" target="E7nvZutU4sEnOqxnhXQk-22">
          <mxGeometry width="50" height="50" relative="1" as="geometry">
            <mxPoint x="400" y="270" as="sourcePoint" />
            <mxPoint x="450" y="220" as="targetPoint" />
          </mxGeometry>
        </mxCell>
        <mxCell id="E7nvZutU4sEnOqxnhXQk-25" value="" style="ellipse;whiteSpace=wrap;html=1;aspect=fixed;strokeColor=#000000;fillColor=#000000;" vertex="1" parent="1">
          <mxGeometry x="412.5" y="185" width="15" height="15" as="geometry" />
        </mxCell>
        <mxCell id="E7nvZutU4sEnOqxnhXQk-26" value="" style="ellipse;whiteSpace=wrap;html=1;aspect=fixed;strokeColor=#000000;fillColor=#000000;" vertex="1" parent="1">
          <mxGeometry x="412.5" y="265" width="15" height="15" as="geometry" />
        </mxCell>
        <mxCell id="E7nvZutU4sEnOqxnhXQk-27" value="" style="endArrow=classic;html=1;rounded=0;exitX=1;exitY=0.5;exitDx=0;exitDy=0;" edge="1" parent="1" source="E7nvZutU4sEnOqxnhXQk-22">
          <mxGeometry width="50" height="50" relative="1" as="geometry">
            <mxPoint x="400" y="270" as="sourcePoint" />
            <mxPoint x="520" y="193" as="targetPoint" />
          </mxGeometry>
        </mxCell>
        <mxCell id="E7nvZutU4sEnOqxnhXQk-28" value="&amp;nbsp; [&amp;lt; 3 TRIES]" style="text;html=1;align=center;verticalAlign=middle;resizable=0;points=[];autosize=1;strokeColor=none;fillColor=none;" vertex="1" parent="1">
          <mxGeometry x="355" y="138" width="90" height="30" as="geometry" />
        </mxCell>
        <mxCell id="E7nvZutU4sEnOqxnhXQk-29" value="&amp;nbsp; &amp;nbsp; &amp;nbsp; &amp;nbsp; &amp;nbsp; &amp;nbsp; [&amp;gt;= 3 TRIES]" style="text;html=1;align=center;verticalAlign=middle;resizable=0;points=[];autosize=1;strokeColor=none;fillColor=none;" vertex="1" parent="1">
          <mxGeometry x="395" y="158" width="130" height="30" as="geometry" />
        </mxCell>
        <mxCell id="E7nvZutU4sEnOqxnhXQk-30" value="CONFISCATE CARD" style="rounded=1;whiteSpace=wrap;html=1;" vertex="1" parent="1">
          <mxGeometry x="520" y="172.5" width="100" height="40" as="geometry" />
        </mxCell>
        <mxCell id="E7nvZutU4sEnOqxnhXQk-31" value="" style="endArrow=classic;html=1;rounded=0;exitX=0.5;exitY=1;exitDx=0;exitDy=0;entryX=1;entryY=0.5;entryDx=0;entryDy=0;" edge="1" parent="1" source="E7nvZutU4sEnOqxnhXQk-18" target="E7nvZutU4sEnOqxnhXQk-30">
          <mxGeometry width="50" height="50" relative="1" as="geometry">
            <mxPoint x="400" y="270" as="sourcePoint" />
            <mxPoint x="450" y="220" as="targetPoint" />
            <Array as="points">
              <mxPoint x="725" y="190" />
            </Array>
          </mxGeometry>
        </mxCell>
        <mxCell id="E7nvZutU4sEnOqxnhXQk-32" value="[CARD&amp;nbsp;&lt;div&gt;EXPIRED]&lt;/div&gt;" style="text;html=1;align=center;verticalAlign=middle;resizable=0;points=[];autosize=1;strokeColor=none;fillColor=none;" vertex="1" parent="1">
          <mxGeometry x="650" y="133" width="80" height="40" as="geometry" />
        </mxCell>
        <mxCell id="E7nvZutU4sEnOqxnhXQk-33" value="" style="rhombus;whiteSpace=wrap;html=1;" vertex="1" parent="1">
          <mxGeometry x="700" y="250" width="50" height="45" as="geometry" />
        </mxCell>
        <mxCell id="E7nvZutU4sEnOqxnhXQk-34" value="" style="ellipse;whiteSpace=wrap;html=1;aspect=fixed;strokeColor=#000000;fillColor=#000000;" vertex="1" parent="1">
          <mxGeometry x="717.5" y="265" width="15" height="15" as="geometry" />
        </mxCell>
        <mxCell id="E7nvZutU4sEnOqxnhXQk-35" value="" style="endArrow=classic;html=1;rounded=0;exitX=1;exitY=0.5;exitDx=0;exitDy=0;entryX=1;entryY=0.5;entryDx=0;entryDy=0;" edge="1" parent="1" source="E7nvZutU4sEnOqxnhXQk-18" target="E7nvZutU4sEnOqxnhXQk-33">
          <mxGeometry width="50" height="50" relative="1" as="geometry">
            <mxPoint x="400" y="270" as="sourcePoint" />
            <mxPoint x="450" y="220" as="targetPoint" />
            <Array as="points">
              <mxPoint x="820" y="110" />
              <mxPoint x="820" y="273" />
            </Array>
          </mxGeometry>
        </mxCell>
        <mxCell id="E7nvZutU4sEnOqxnhXQk-36" value="[CARD NOT&amp;nbsp;&lt;div&gt;EXPIRED]&lt;/div&gt;" style="edgeLabel;html=1;align=center;verticalAlign=middle;resizable=0;points=[];" vertex="1" connectable="0" parent="E7nvZutU4sEnOqxnhXQk-35">
          <mxGeometry x="-0.0495" y="-2" relative="1" as="geometry">
            <mxPoint as="offset" />
          </mxGeometry>
        </mxCell>
        <mxCell id="E7nvZutU4sEnOqxnhXQk-37" value="" style="endArrow=classic;html=1;rounded=0;exitX=0;exitY=0.5;exitDx=0;exitDy=0;" edge="1" parent="1" source="E7nvZutU4sEnOqxnhXQk-33">
          <mxGeometry width="50" height="50" relative="1" as="geometry">
            <mxPoint x="540" y="270" as="sourcePoint" />
            <mxPoint x="650" y="273" as="targetPoint" />
          </mxGeometry>
        </mxCell>
        <mxCell id="E7nvZutU4sEnOqxnhXQk-38" value="CHECK PIN" style="rounded=1;whiteSpace=wrap;html=1;" vertex="1" parent="1">
          <mxGeometry x="550" y="255" width="100" height="40" as="geometry" />
        </mxCell>
        <mxCell id="E7nvZutU4sEnOqxnhXQk-39" value="[INVALID PIN]" style="text;html=1;align=center;verticalAlign=middle;resizable=0;points=[];autosize=1;strokeColor=none;fillColor=none;" vertex="1" parent="1">
          <mxGeometry x="357" y="218" width="100" height="30" as="geometry" />
        </mxCell>
        <mxCell id="E7nvZutU4sEnOqxnhXQk-40" value="" style="endArrow=classic;html=1;rounded=0;entryX=1;entryY=0.5;entryDx=0;entryDy=0;exitX=0;exitY=0.5;exitDx=0;exitDy=0;" edge="1" parent="1" source="E7nvZutU4sEnOqxnhXQk-38" target="E7nvZutU4sEnOqxnhXQk-21">
          <mxGeometry width="50" height="50" relative="1" as="geometry">
            <mxPoint x="540" y="270" as="sourcePoint" />
            <mxPoint x="590" y="220" as="targetPoint" />
          </mxGeometry>
        </mxCell>
        <mxCell id="E7nvZutU4sEnOqxnhXQk-42" style="edgeStyle=orthogonalEdgeStyle;rounded=0;orthogonalLoop=1;jettySize=auto;html=1;exitX=0.5;exitY=0;exitDx=0;exitDy=0;entryX=0.5;entryY=1;entryDx=0;entryDy=0;" edge="1" parent="1" source="E7nvZutU4sEnOqxnhXQk-26" target="E7nvZutU4sEnOqxnhXQk-26">
          <mxGeometry relative="1" as="geometry">
            <Array as="points">
              <mxPoint x="420" y="280" />
              <mxPoint x="420" y="280" />
            </Array>
          </mxGeometry>
        </mxCell>
        <mxCell id="E7nvZutU4sEnOqxnhXQk-43" value="" style="endArrow=classic;html=1;rounded=0;exitX=0;exitY=0.5;exitDx=0;exitDy=0;" edge="1" parent="1" source="E7nvZutU4sEnOqxnhXQk-21">
          <mxGeometry width="50" height="50" relative="1" as="geometry">
            <mxPoint x="540" y="270" as="sourcePoint" />
            <mxPoint x="280" y="275" as="targetPoint" />
          </mxGeometry>
        </mxCell>
        <mxCell id="E7nvZutU4sEnOqxnhXQk-97" value="[VALID PIN]" style="edgeLabel;html=1;align=center;verticalAlign=middle;resizable=0;points=[];" vertex="1" connectable="0" parent="E7nvZutU4sEnOqxnhXQk-43">
          <mxGeometry x="0.0537" y="-2" relative="1" as="geometry">
            <mxPoint x="-1" as="offset" />
          </mxGeometry>
        </mxCell>
        <mxCell id="E7nvZutU4sEnOqxnhXQk-98" value="Text" style="edgeLabel;html=1;align=center;verticalAlign=middle;resizable=0;points=[];" vertex="1" connectable="0" parent="E7nvZutU4sEnOqxnhXQk-43">
          <mxGeometry x="-0.0486" relative="1" as="geometry">
            <mxPoint x="-1" as="offset" />
          </mxGeometry>
        </mxCell>
        <mxCell id="E7nvZutU4sEnOqxnhXQk-44" value="PROMPT FOR TRANSACTION" style="rounded=1;whiteSpace=wrap;html=1;" vertex="1" parent="1">
          <mxGeometry x="180" y="255" width="100" height="40" as="geometry" />
        </mxCell>
        <mxCell id="E7nvZutU4sEnOqxnhXQk-45" value="" style="endArrow=classic;html=1;rounded=0;exitX=0.5;exitY=1;exitDx=0;exitDy=0;" edge="1" parent="1" source="E7nvZutU4sEnOqxnhXQk-44">
          <mxGeometry width="50" height="50" relative="1" as="geometry">
            <mxPoint x="540" y="280" as="sourcePoint" />
            <mxPoint x="230" y="330" as="targetPoint" />
          </mxGeometry>
        </mxCell>
        <mxCell id="E7nvZutU4sEnOqxnhXQk-46" value="" style="rhombus;whiteSpace=wrap;html=1;" vertex="1" parent="1">
          <mxGeometry x="205" y="330" width="50" height="45" as="geometry" />
        </mxCell>
        <mxCell id="E7nvZutU4sEnOqxnhXQk-47" value="" style="ellipse;whiteSpace=wrap;html=1;aspect=fixed;strokeColor=#000000;fillColor=#000000;" vertex="1" parent="1">
          <mxGeometry x="222.5" y="345" width="15" height="15" as="geometry" />
        </mxCell>
        <mxCell id="E7nvZutU4sEnOqxnhXQk-50" value="" style="endArrow=classic;html=1;rounded=0;exitX=1;exitY=0.5;exitDx=0;exitDy=0;" edge="1" parent="1" source="E7nvZutU4sEnOqxnhXQk-46">
          <mxGeometry width="50" height="50" relative="1" as="geometry">
            <mxPoint x="540" y="280" as="sourcePoint" />
            <mxPoint x="330" y="350" as="targetPoint" />
          </mxGeometry>
        </mxCell>
        <mxCell id="E7nvZutU4sEnOqxnhXQk-51" value="SELECT ACCT&lt;div&gt;#&lt;/div&gt;" style="rounded=1;whiteSpace=wrap;html=1;" vertex="1" parent="1">
          <mxGeometry x="330" y="330" width="100" height="40" as="geometry" />
        </mxCell>
        <mxCell id="E7nvZutU4sEnOqxnhXQk-52" value="" style="endArrow=classic;html=1;rounded=0;exitX=1;exitY=0.5;exitDx=0;exitDy=0;" edge="1" parent="1" source="E7nvZutU4sEnOqxnhXQk-51">
          <mxGeometry width="50" height="50" relative="1" as="geometry">
            <mxPoint x="540" y="280" as="sourcePoint" />
            <mxPoint x="480" y="350" as="targetPoint" />
          </mxGeometry>
        </mxCell>
        <mxCell id="E7nvZutU4sEnOqxnhXQk-53" value="" style="rhombus;whiteSpace=wrap;html=1;" vertex="1" parent="1">
          <mxGeometry x="480" y="327.5" width="50" height="45" as="geometry" />
        </mxCell>
        <mxCell id="E7nvZutU4sEnOqxnhXQk-54" value="" style="rhombus;whiteSpace=wrap;html=1;" vertex="1" parent="1">
          <mxGeometry x="550" y="327.5" width="50" height="45" as="geometry" />
        </mxCell>
        <mxCell id="E7nvZutU4sEnOqxnhXQk-55" value="" style="rhombus;whiteSpace=wrap;html=1;" vertex="1" parent="1">
          <mxGeometry x="630" y="327.5" width="50" height="45" as="geometry" />
        </mxCell>
        <mxCell id="E7nvZutU4sEnOqxnhXQk-56" value="" style="rhombus;whiteSpace=wrap;html=1;" vertex="1" parent="1">
          <mxGeometry x="710" y="325" width="50" height="45" as="geometry" />
        </mxCell>
        <mxCell id="E7nvZutU4sEnOqxnhXQk-57" value="" style="endArrow=classic;html=1;rounded=0;exitX=1;exitY=0.5;exitDx=0;exitDy=0;entryX=0;entryY=0.5;entryDx=0;entryDy=0;" edge="1" parent="1" source="E7nvZutU4sEnOqxnhXQk-53" target="E7nvZutU4sEnOqxnhXQk-54">
          <mxGeometry width="50" height="50" relative="1" as="geometry">
            <mxPoint x="440" y="360" as="sourcePoint" />
            <mxPoint x="490" y="360" as="targetPoint" />
          </mxGeometry>
        </mxCell>
        <mxCell id="E7nvZutU4sEnOqxnhXQk-59" value="" style="endArrow=classic;html=1;rounded=0;exitX=1;exitY=0.5;exitDx=0;exitDy=0;entryX=0;entryY=0.5;entryDx=0;entryDy=0;" edge="1" parent="1" source="E7nvZutU4sEnOqxnhXQk-54" target="E7nvZutU4sEnOqxnhXQk-55">
          <mxGeometry width="50" height="50" relative="1" as="geometry">
            <mxPoint x="540" y="280" as="sourcePoint" />
            <mxPoint x="590" y="230" as="targetPoint" />
          </mxGeometry>
        </mxCell>
        <mxCell id="E7nvZutU4sEnOqxnhXQk-60" value="" style="endArrow=classic;html=1;rounded=0;exitX=1;exitY=0.5;exitDx=0;exitDy=0;" edge="1" parent="1" source="E7nvZutU4sEnOqxnhXQk-55" target="E7nvZutU4sEnOqxnhXQk-56">
          <mxGeometry width="50" height="50" relative="1" as="geometry">
            <mxPoint x="540" y="280" as="sourcePoint" />
            <mxPoint x="590" y="230" as="targetPoint" />
          </mxGeometry>
        </mxCell>
        <mxCell id="E7nvZutU4sEnOqxnhXQk-61" value="" style="ellipse;whiteSpace=wrap;html=1;aspect=fixed;strokeColor=#000000;fillColor=#000000;" vertex="1" parent="1">
          <mxGeometry x="647.5" y="342.5" width="15" height="15" as="geometry" />
        </mxCell>
        <mxCell id="E7nvZutU4sEnOqxnhXQk-62" value="" style="ellipse;whiteSpace=wrap;html=1;aspect=fixed;strokeColor=#000000;fillColor=#000000;" vertex="1" parent="1">
          <mxGeometry x="567.5" y="342.5" width="15" height="15" as="geometry" />
        </mxCell>
        <mxCell id="E7nvZutU4sEnOqxnhXQk-63" value="" style="ellipse;whiteSpace=wrap;html=1;aspect=fixed;strokeColor=#000000;fillColor=#000000;" vertex="1" parent="1">
          <mxGeometry x="497.5" y="342.5" width="15" height="15" as="geometry" />
        </mxCell>
        <mxCell id="E7nvZutU4sEnOqxnhXQk-64" value="" style="ellipse;whiteSpace=wrap;html=1;aspect=fixed;strokeColor=#000000;fillColor=#000000;" vertex="1" parent="1">
          <mxGeometry x="727.5" y="340" width="15" height="15" as="geometry" />
        </mxCell>
        <mxCell id="E7nvZutU4sEnOqxnhXQk-67" value="[VALID&amp;nbsp;&lt;div&gt;ACCOUNT]&lt;/div&gt;" style="text;html=1;align=center;verticalAlign=middle;resizable=0;points=[];autosize=1;strokeColor=none;fillColor=none;" vertex="1" parent="1">
          <mxGeometry x="497.5" y="305" width="90" height="40" as="geometry" />
        </mxCell>
        <mxCell id="E7nvZutU4sEnOqxnhXQk-68" value="[NOT&amp;nbsp;&lt;div&gt;EXCEEDED]&lt;/div&gt;" style="text;html=1;align=center;verticalAlign=middle;resizable=0;points=[];autosize=1;strokeColor=none;fillColor=none;" vertex="1" parent="1">
          <mxGeometry x="575" y="303" width="90" height="40" as="geometry" />
        </mxCell>
        <mxCell id="E7nvZutU4sEnOqxnhXQk-69" value="&lt;font style=&quot;font-size: 9px;&quot;&gt;&amp;nbsp; &amp;nbsp; &amp;nbsp; &amp;nbsp;[SUFFICIENT&amp;nbsp;&lt;/font&gt;&lt;div&gt;&lt;font style=&quot;font-size: 9px;&quot;&gt;&amp;nbsp; &amp;nbsp; &amp;nbsp;FUND]&lt;/font&gt;&lt;/div&gt;" style="text;html=1;align=center;verticalAlign=middle;resizable=0;points=[];autosize=1;strokeColor=none;fillColor=none;" vertex="1" parent="1">
          <mxGeometry x="630" y="303" width="100" height="40" as="geometry" />
        </mxCell>
        <mxCell id="E7nvZutU4sEnOqxnhXQk-70" value="" style="endArrow=classic;html=1;rounded=0;exitX=0.5;exitY=1;exitDx=0;exitDy=0;entryX=0;entryY=0.5;entryDx=0;entryDy=0;" edge="1" parent="1" source="E7nvZutU4sEnOqxnhXQk-53" target="E7nvZutU4sEnOqxnhXQk-71">
          <mxGeometry width="50" height="50" relative="1" as="geometry">
            <mxPoint x="540" y="480" as="sourcePoint" />
            <mxPoint x="505" y="450" as="targetPoint" />
            <Array as="points">
              <mxPoint x="505" y="440" />
            </Array>
          </mxGeometry>
        </mxCell>
        <mxCell id="E7nvZutU4sEnOqxnhXQk-87" value="[INVALID&amp;nbsp;&lt;div&gt;ACCOUNT]&lt;/div&gt;" style="edgeLabel;html=1;align=center;verticalAlign=middle;resizable=0;points=[];" vertex="1" connectable="0" parent="E7nvZutU4sEnOqxnhXQk-70">
          <mxGeometry x="-0.4069" y="-2" relative="1" as="geometry">
            <mxPoint as="offset" />
          </mxGeometry>
        </mxCell>
        <mxCell id="E7nvZutU4sEnOqxnhXQk-71" value="EJECT CARD" style="rounded=1;whiteSpace=wrap;html=1;" vertex="1" parent="1">
          <mxGeometry x="562.5" y="420" width="100" height="40" as="geometry" />
        </mxCell>
        <mxCell id="E7nvZutU4sEnOqxnhXQk-72" value="" style="endArrow=classic;html=1;rounded=0;exitX=0.5;exitY=1;exitDx=0;exitDy=0;entryX=0.115;entryY=0.025;entryDx=0;entryDy=0;entryPerimeter=0;" edge="1" parent="1">
          <mxGeometry width="50" height="50" relative="1" as="geometry">
            <mxPoint x="577" y="372.5" as="sourcePoint" />
            <mxPoint x="576.0000000000002" y="421.0000000000001" as="targetPoint" />
          </mxGeometry>
        </mxCell>
        <mxCell id="E7nvZutU4sEnOqxnhXQk-88" value="&amp;nbsp; &amp;nbsp; [DAILY AMOUNT&amp;nbsp;&lt;div&gt;&amp;nbsp; &amp;nbsp;EXCEEDED]&lt;/div&gt;" style="edgeLabel;html=1;align=center;verticalAlign=middle;resizable=0;points=[];" vertex="1" connectable="0" parent="E7nvZutU4sEnOqxnhXQk-72">
          <mxGeometry x="-0.2204" y="-3" relative="1" as="geometry">
            <mxPoint as="offset" />
          </mxGeometry>
        </mxCell>
        <mxCell id="E7nvZutU4sEnOqxnhXQk-73" value="" style="endArrow=classic;html=1;rounded=0;exitX=0.5;exitY=1;exitDx=0;exitDy=0;entryX=0.915;entryY=0.025;entryDx=0;entryDy=0;entryPerimeter=0;" edge="1" parent="1" source="E7nvZutU4sEnOqxnhXQk-55" target="E7nvZutU4sEnOqxnhXQk-71">
          <mxGeometry width="50" height="50" relative="1" as="geometry">
            <mxPoint x="540" y="480" as="sourcePoint" />
            <mxPoint x="590" y="430" as="targetPoint" />
          </mxGeometry>
        </mxCell>
        <mxCell id="E7nvZutU4sEnOqxnhXQk-74" value="" style="endArrow=classic;html=1;rounded=0;exitX=0.5;exitY=1;exitDx=0;exitDy=0;entryX=1;entryY=0.5;entryDx=0;entryDy=0;" edge="1" parent="1" source="E7nvZutU4sEnOqxnhXQk-56" target="E7nvZutU4sEnOqxnhXQk-71">
          <mxGeometry width="50" height="50" relative="1" as="geometry">
            <mxPoint x="540" y="480" as="sourcePoint" />
            <mxPoint x="735" y="440" as="targetPoint" />
            <Array as="points">
              <mxPoint x="735" y="440" />
            </Array>
          </mxGeometry>
        </mxCell>
        <mxCell id="E7nvZutU4sEnOqxnhXQk-75" value="" style="endArrow=classic;html=1;rounded=0;exitX=1;exitY=0.5;exitDx=0;exitDy=0;" edge="1" parent="1" source="E7nvZutU4sEnOqxnhXQk-56">
          <mxGeometry width="50" height="50" relative="1" as="geometry">
            <mxPoint x="540" y="480" as="sourcePoint" />
            <mxPoint x="690" y="610" as="targetPoint" />
            <Array as="points">
              <mxPoint x="810" y="348" />
              <mxPoint x="810" y="610" />
            </Array>
          </mxGeometry>
        </mxCell>
        <mxCell id="E7nvZutU4sEnOqxnhXQk-91" value="[NOT OUT OF&amp;nbsp;&lt;div&gt;FUNDS]&lt;/div&gt;" style="edgeLabel;html=1;align=center;verticalAlign=middle;resizable=0;points=[];" vertex="1" connectable="0" parent="E7nvZutU4sEnOqxnhXQk-75">
          <mxGeometry x="-0.1212" y="-11" relative="1" as="geometry">
            <mxPoint as="offset" />
          </mxGeometry>
        </mxCell>
        <mxCell id="E7nvZutU4sEnOqxnhXQk-76" value="PRINT WELCOME MESSAGE" style="rounded=1;whiteSpace=wrap;html=1;" vertex="1" parent="1">
          <mxGeometry x="130" y="580" width="100" height="60" as="geometry" />
        </mxCell>
        <mxCell id="E7nvZutU4sEnOqxnhXQk-77" value="EJECT CARD" style="rounded=1;whiteSpace=wrap;html=1;" vertex="1" parent="1">
          <mxGeometry x="290" y="590" width="100" height="40" as="geometry" />
        </mxCell>
        <mxCell id="E7nvZutU4sEnOqxnhXQk-78" value="PRINT RECEIPT" style="rounded=1;whiteSpace=wrap;html=1;" vertex="1" parent="1">
          <mxGeometry x="440" y="590" width="100" height="40" as="geometry" />
        </mxCell>
        <mxCell id="E7nvZutU4sEnOqxnhXQk-79" value="DISPENSE CASH" style="rounded=1;whiteSpace=wrap;html=1;" vertex="1" parent="1">
          <mxGeometry x="590" y="590" width="100" height="40" as="geometry" />
        </mxCell>
        <mxCell id="E7nvZutU4sEnOqxnhXQk-80" value="" style="endArrow=classic;html=1;rounded=0;exitX=0;exitY=0.5;exitDx=0;exitDy=0;" edge="1" parent="1" source="E7nvZutU4sEnOqxnhXQk-79">
          <mxGeometry width="50" height="50" relative="1" as="geometry">
            <mxPoint x="540" y="480" as="sourcePoint" />
            <mxPoint x="540" y="610" as="targetPoint" />
          </mxGeometry>
        </mxCell>
        <mxCell id="E7nvZutU4sEnOqxnhXQk-81" value="" style="endArrow=classic;html=1;rounded=0;exitX=0;exitY=0.5;exitDx=0;exitDy=0;entryX=1;entryY=0.5;entryDx=0;entryDy=0;" edge="1" parent="1" source="E7nvZutU4sEnOqxnhXQk-78" target="E7nvZutU4sEnOqxnhXQk-77">
          <mxGeometry width="50" height="50" relative="1" as="geometry">
            <mxPoint x="540" y="480" as="sourcePoint" />
            <mxPoint x="590" y="430" as="targetPoint" />
          </mxGeometry>
        </mxCell>
        <mxCell id="E7nvZutU4sEnOqxnhXQk-82" value="" style="endArrow=classic;html=1;rounded=0;exitX=0;exitY=0.5;exitDx=0;exitDy=0;entryX=1;entryY=0.5;entryDx=0;entryDy=0;" edge="1" parent="1" source="E7nvZutU4sEnOqxnhXQk-77" target="E7nvZutU4sEnOqxnhXQk-76">
          <mxGeometry width="50" height="50" relative="1" as="geometry">
            <mxPoint x="540" y="480" as="sourcePoint" />
            <mxPoint x="590" y="430" as="targetPoint" />
          </mxGeometry>
        </mxCell>
        <mxCell id="E7nvZutU4sEnOqxnhXQk-83" value="" style="ellipse;whiteSpace=wrap;html=1;aspect=fixed;" vertex="1" parent="1">
          <mxGeometry x="10" y="590" width="50" height="50" as="geometry" />
        </mxCell>
        <mxCell id="E7nvZutU4sEnOqxnhXQk-84" value="" style="ellipse;whiteSpace=wrap;html=1;aspect=fixed;strokeColor=#000000;fillColor=#000000;" vertex="1" parent="1">
          <mxGeometry x="40" y="21.25" width="40" height="40" as="geometry" />
        </mxCell>
        <mxCell id="E7nvZutU4sEnOqxnhXQk-85" value="" style="ellipse;whiteSpace=wrap;html=1;aspect=fixed;strokeColor=#000000;fillColor=#000000;" vertex="1" parent="1">
          <mxGeometry x="18.75" y="598.75" width="32.5" height="32.5" as="geometry" />
        </mxCell>
        <mxCell id="E7nvZutU4sEnOqxnhXQk-86" value="" style="endArrow=classic;html=1;rounded=0;exitX=-0.01;exitY=0.617;exitDx=0;exitDy=0;exitPerimeter=0;" edge="1" parent="1" source="E7nvZutU4sEnOqxnhXQk-76">
          <mxGeometry width="50" height="50" relative="1" as="geometry">
            <mxPoint x="340" y="600" as="sourcePoint" />
            <mxPoint x="60" y="617" as="targetPoint" />
          </mxGeometry>
        </mxCell>
        <mxCell id="E7nvZutU4sEnOqxnhXQk-89" value="&amp;nbsp; &amp;nbsp; &amp;nbsp; &amp;nbsp; [INSUFFICIENT&amp;nbsp;&lt;div&gt;FUNDS]&lt;/div&gt;" style="text;html=1;align=center;verticalAlign=middle;resizable=0;points=[];autosize=1;strokeColor=none;fillColor=none;" vertex="1" parent="1">
          <mxGeometry x="590" y="363" width="140" height="40" as="geometry" />
        </mxCell>
        <mxCell id="E7nvZutU4sEnOqxnhXQk-90" value="[ATM OUT OF&amp;nbsp;&lt;div&gt;FUNDS]&lt;/div&gt;" style="text;html=1;align=center;verticalAlign=middle;resizable=0;points=[];autosize=1;strokeColor=none;fillColor=none;" vertex="1" parent="1">
          <mxGeometry x="700" y="383" width="100" height="40" as="geometry" />
        </mxCell>
        <mxCell id="E7nvZutU4sEnOqxnhXQk-92" value="[SELECT&amp;nbsp;&lt;div&gt;&amp;nbsp; &amp;nbsp; WITHDRAW]&lt;/div&gt;" style="text;html=1;align=center;verticalAlign=middle;resizable=0;points=[];autosize=1;strokeColor=none;fillColor=none;" vertex="1" parent="1">
          <mxGeometry x="225" y="313" width="110" height="40" as="geometry" />
        </mxCell>
        <mxCell id="E7nvZutU4sEnOqxnhXQk-94" value="&lt;font style=&quot;font-size: 11px;&quot;&gt;&amp;nbsp;CARD&amp;nbsp;&lt;/font&gt;&lt;div style=&quot;font-size: 11px;&quot;&gt;&lt;font style=&quot;font-size: 11px;&quot;&gt;&amp;nbsp; &amp;nbsp; &amp;nbsp;NOT LOST&lt;/font&gt;&lt;/div&gt;" style="text;html=1;align=center;verticalAlign=middle;resizable=0;points=[];autosize=1;strokeColor=none;fillColor=none;" vertex="1" parent="1">
          <mxGeometry x="625" y="243" width="90" height="40" as="geometry" />
        </mxCell>
        <mxCell id="E7nvZutU4sEnOqxnhXQk-95" value="" style="endArrow=classic;html=1;rounded=0;exitX=0.5;exitY=0;exitDx=0;exitDy=0;entryX=0.3;entryY=0.733;entryDx=0;entryDy=0;entryPerimeter=0;" edge="1" parent="1" source="E7nvZutU4sEnOqxnhXQk-33">
          <mxGeometry width="50" height="50" relative="1" as="geometry">
            <mxPoint x="350" y="420" as="sourcePoint" />
            <mxPoint x="620" y="209.99" as="targetPoint" />
            <Array as="points">
              <mxPoint x="725" y="210" />
            </Array>
          </mxGeometry>
        </mxCell>
        <mxCell id="E7nvZutU4sEnOqxnhXQk-96" value="&amp;nbsp;[CARD LOST]" style="text;html=1;align=center;verticalAlign=middle;resizable=0;points=[];autosize=1;strokeColor=none;fillColor=none;" vertex="1" parent="1">
          <mxGeometry x="640" y="208" width="100" height="30" as="geometry" />
        </mxCell>
      </root>
    </mxGraphModel>
  </diagram>
</mxfile>
